<mxfile host="app.diagrams.net" modified="2020-10-21T03:08:25.868Z" agent="5.0 (Windows NT 10.0; Win64; x64) AppleWebKit/537.36 (KHTML, like Gecko) Chrome/86.0.4240.75 Safari/537.36" etag="qUotgVhKwxzWHL70Cg9O" version="13.8.1" type="github">
  <diagram id="kgpKYQtTHZ0yAKxKKP6v" name="Page-1">
    <mxGraphModel dx="2272" dy="794" grid="1" gridSize="10" guides="1" tooltips="1" connect="1" arrows="1" fold="1" page="1" pageScale="1" pageWidth="850" pageHeight="1100" math="0" shadow="0">
      <root>
        <mxCell id="0" />
        <mxCell id="1" parent="0" />
        <mxCell id="-DS7HXD9sX-EJSOfmCuz-25" style="edgeStyle=orthogonalEdgeStyle;rounded=0;orthogonalLoop=1;jettySize=auto;html=1;exitX=0.5;exitY=1;exitDx=0;exitDy=0;entryX=0.5;entryY=0;entryDx=0;entryDy=0;" edge="1" parent="1" target="-DS7HXD9sX-EJSOfmCuz-24">
          <mxGeometry relative="1" as="geometry">
            <mxPoint x="685" y="180" as="sourcePoint" />
          </mxGeometry>
        </mxCell>
        <mxCell id="-DS7HXD9sX-EJSOfmCuz-256" style="edgeStyle=orthogonalEdgeStyle;rounded=0;orthogonalLoop=1;jettySize=auto;html=1;exitX=0.5;exitY=1;exitDx=0;exitDy=0;" edge="1" parent="1" source="-DS7HXD9sX-EJSOfmCuz-242">
          <mxGeometry relative="1" as="geometry">
            <mxPoint x="220" y="300" as="targetPoint" />
          </mxGeometry>
        </mxCell>
        <mxCell id="-DS7HXD9sX-EJSOfmCuz-264" value="" style="group" vertex="1" connectable="0" parent="1">
          <mxGeometry x="-380" y="10" width="1380" height="670" as="geometry" />
        </mxCell>
        <mxCell id="-DS7HXD9sX-EJSOfmCuz-34" value="Pool" style="swimlane;html=1;childLayout=stackLayout;resizeParent=1;resizeParentMax=0;startSize=20;fillColor=#f5f5f5;strokeColor=#666666;fontColor=#333333;" vertex="1" parent="-DS7HXD9sX-EJSOfmCuz-264">
          <mxGeometry x="41.503759398496236" width="1338.4962406015038" height="670" as="geometry" />
        </mxCell>
        <mxCell id="-DS7HXD9sX-EJSOfmCuz-35" value="Business Understading" style="swimlane;html=1;startSize=20;fillColor=#dae8fc;strokeColor=#6c8ebf;" vertex="1" parent="-DS7HXD9sX-EJSOfmCuz-34">
          <mxGeometry y="20" width="321.65413533834584" height="650" as="geometry" />
        </mxCell>
        <mxCell id="-DS7HXD9sX-EJSOfmCuz-238" style="edgeStyle=orthogonalEdgeStyle;rounded=0;orthogonalLoop=1;jettySize=auto;html=1;exitX=0.5;exitY=1;exitDx=0;exitDy=0;entryX=0.5;entryY=0;entryDx=0;entryDy=0;" edge="1" parent="-DS7HXD9sX-EJSOfmCuz-35" source="-DS7HXD9sX-EJSOfmCuz-233" target="-DS7HXD9sX-EJSOfmCuz-235">
          <mxGeometry relative="1" as="geometry" />
        </mxCell>
        <mxCell id="-DS7HXD9sX-EJSOfmCuz-233" value="&lt;span&gt;Criação do template do pipeline de dados&lt;/span&gt;" style="shape=ext;double=1;rounded=1;whiteSpace=wrap;html=1;fillColor=#dae8fc;strokeColor=#6c8ebf;" vertex="1" parent="-DS7HXD9sX-EJSOfmCuz-35">
          <mxGeometry x="10.375939849624059" y="36.54545454545454" width="134.88721804511277" height="48.72727272727272" as="geometry" />
        </mxCell>
        <mxCell id="-DS7HXD9sX-EJSOfmCuz-239" style="edgeStyle=orthogonalEdgeStyle;rounded=0;orthogonalLoop=1;jettySize=auto;html=1;exitX=1;exitY=0.5;exitDx=0;exitDy=0;" edge="1" parent="-DS7HXD9sX-EJSOfmCuz-35" source="-DS7HXD9sX-EJSOfmCuz-235" target="-DS7HXD9sX-EJSOfmCuz-236">
          <mxGeometry relative="1" as="geometry" />
        </mxCell>
        <mxCell id="-DS7HXD9sX-EJSOfmCuz-235" value="&lt;span&gt;Criação da documentação&lt;/span&gt;" style="shape=ext;double=1;rounded=1;whiteSpace=wrap;html=1;fillColor=#dae8fc;strokeColor=#6c8ebf;" vertex="1" parent="-DS7HXD9sX-EJSOfmCuz-35">
          <mxGeometry x="10.375939849624059" y="353.27272727272725" width="124.51127819548871" height="48.72727272727272" as="geometry" />
        </mxCell>
        <mxCell id="-DS7HXD9sX-EJSOfmCuz-236" value="Documentação e Pipeline" style="shape=document;whiteSpace=wrap;html=1;boundedLbl=1;fillColor=#d5e8d4;strokeColor=#82b366;" vertex="1" parent="-DS7HXD9sX-EJSOfmCuz-35">
          <mxGeometry x="186.7669172932331" y="353.27272727272725" width="124.51127819548871" height="60.90909090909091" as="geometry" />
        </mxCell>
        <mxCell id="-DS7HXD9sX-EJSOfmCuz-36" value="Data Ingest &amp;amp; Understanding" style="swimlane;html=1;startSize=20;fillColor=#f5f5f5;strokeColor=#666666;fontColor=#333333;" vertex="1" parent="-DS7HXD9sX-EJSOfmCuz-34">
          <mxGeometry x="321.65413533834584" y="20" width="321.65413533834584" height="650" as="geometry" />
        </mxCell>
        <mxCell id="-DS7HXD9sX-EJSOfmCuz-252" style="edgeStyle=orthogonalEdgeStyle;rounded=0;orthogonalLoop=1;jettySize=auto;html=1;exitX=1;exitY=0.5;exitDx=0;exitDy=0;" edge="1" parent="-DS7HXD9sX-EJSOfmCuz-36" source="-DS7HXD9sX-EJSOfmCuz-244" target="-DS7HXD9sX-EJSOfmCuz-245">
          <mxGeometry relative="1" as="geometry" />
        </mxCell>
        <mxCell id="-DS7HXD9sX-EJSOfmCuz-244" value="&lt;span&gt;Desenho da Arquitetura da Solução&lt;/span&gt;" style="shape=ext;double=1;rounded=1;whiteSpace=wrap;html=1;fillColor=#dae8fc;strokeColor=#6c8ebf;" vertex="1" parent="-DS7HXD9sX-EJSOfmCuz-36">
          <mxGeometry x="10.375939849624059" y="487.27272727272725" width="134.88721804511277" height="48.72727272727272" as="geometry" />
        </mxCell>
        <mxCell id="-DS7HXD9sX-EJSOfmCuz-254" style="edgeStyle=orthogonalEdgeStyle;rounded=0;orthogonalLoop=1;jettySize=auto;html=1;exitX=0.5;exitY=1;exitDx=0;exitDy=0;entryX=0.75;entryY=0;entryDx=0;entryDy=0;" edge="1" parent="-DS7HXD9sX-EJSOfmCuz-36" source="-DS7HXD9sX-EJSOfmCuz-240" target="-DS7HXD9sX-EJSOfmCuz-241">
          <mxGeometry relative="1" as="geometry" />
        </mxCell>
        <mxCell id="-DS7HXD9sX-EJSOfmCuz-240" value="&lt;span&gt;Provisionamento de infraestrutura&lt;/span&gt;" style="shape=ext;double=1;rounded=1;whiteSpace=wrap;html=1;fillColor=#dae8fc;strokeColor=#6c8ebf;" vertex="1" parent="-DS7HXD9sX-EJSOfmCuz-36">
          <mxGeometry x="41.503759398496236" y="36.54545454545454" width="124.51127819548871" height="48.72727272727272" as="geometry" />
        </mxCell>
        <mxCell id="-DS7HXD9sX-EJSOfmCuz-257" style="edgeStyle=orthogonalEdgeStyle;rounded=0;orthogonalLoop=1;jettySize=auto;html=1;exitX=1;exitY=0.25;exitDx=0;exitDy=0;" edge="1" parent="-DS7HXD9sX-EJSOfmCuz-36" source="-DS7HXD9sX-EJSOfmCuz-241" target="-DS7HXD9sX-EJSOfmCuz-242">
          <mxGeometry relative="1" as="geometry" />
        </mxCell>
        <mxCell id="-DS7HXD9sX-EJSOfmCuz-241" value="Aporte de infraestrutura" style="shape=ext;double=1;rounded=1;whiteSpace=wrap;html=1;fillColor=#dae8fc;strokeColor=#6c8ebf;" vertex="1" parent="-DS7HXD9sX-EJSOfmCuz-36">
          <mxGeometry x="10.375939849624059" y="207.0909090909091" width="124.51127819548871" height="48.72727272727272" as="geometry" />
        </mxCell>
        <mxCell id="-DS7HXD9sX-EJSOfmCuz-243" value="Catalogo de dados" style="shape=document;whiteSpace=wrap;html=1;boundedLbl=1;fillColor=#d5e8d4;strokeColor=#82b366;" vertex="1" parent="-DS7HXD9sX-EJSOfmCuz-36">
          <mxGeometry x="155.6390977443609" y="255.81818181818184" width="124.51127819548871" height="60.90909090909091" as="geometry" />
        </mxCell>
        <mxCell id="-DS7HXD9sX-EJSOfmCuz-242" value="&lt;span&gt;Ingestão de dados e exploração&lt;/span&gt;" style="shape=ext;double=1;rounded=1;whiteSpace=wrap;html=1;fillColor=#dae8fc;strokeColor=#6c8ebf;" vertex="1" parent="-DS7HXD9sX-EJSOfmCuz-36">
          <mxGeometry x="166.01503759398494" y="182.72727272727272" width="124.51127819548871" height="36.54545454545454" as="geometry" />
        </mxCell>
        <mxCell id="-DS7HXD9sX-EJSOfmCuz-245" value="Diagrama da Arquitetura" style="shape=document;whiteSpace=wrap;html=1;boundedLbl=1;fillColor=#d5e8d4;strokeColor=#82b366;" vertex="1" parent="-DS7HXD9sX-EJSOfmCuz-36">
          <mxGeometry x="155.6390977443609" y="560.3636363636364" width="124.51127819548871" height="60.90909090909091" as="geometry" />
        </mxCell>
        <mxCell id="-DS7HXD9sX-EJSOfmCuz-111" value="Modeling" style="swimlane;html=1;startSize=20;fillColor=#f5f5f5;strokeColor=#666666;fontColor=#333333;" vertex="1" parent="-DS7HXD9sX-EJSOfmCuz-34">
          <mxGeometry x="643.3082706766917" y="20" width="342.406015037594" height="650" as="geometry" />
        </mxCell>
        <mxCell id="-DS7HXD9sX-EJSOfmCuz-246" value="&lt;span&gt;Desenvolvimento do pipeline de dados&lt;/span&gt;" style="shape=ext;double=1;rounded=1;whiteSpace=wrap;html=1;fillColor=#dae8fc;strokeColor=#6c8ebf;" vertex="1" parent="-DS7HXD9sX-EJSOfmCuz-111">
          <mxGeometry x="72.63157894736841" y="523.8181818181818" width="124.51127819548871" height="48.72727272727272" as="geometry" />
        </mxCell>
        <mxCell id="-DS7HXD9sX-EJSOfmCuz-248" value="Criação de feature de engenharia" style="shape=ext;double=1;rounded=1;whiteSpace=wrap;html=1;fillColor=#dae8fc;strokeColor=#6c8ebf;" vertex="1" parent="-DS7HXD9sX-EJSOfmCuz-111">
          <mxGeometry x="20.751879699248118" y="182.72727272727272" width="124.51127819548871" height="48.72727272727272" as="geometry" />
        </mxCell>
        <mxCell id="-DS7HXD9sX-EJSOfmCuz-249" value="Pipeline" style="shape=document;whiteSpace=wrap;html=1;boundedLbl=1;fillColor=#d5e8d4;strokeColor=#82b366;" vertex="1" parent="-DS7HXD9sX-EJSOfmCuz-111">
          <mxGeometry x="166.01503759398494" y="255.81818181818184" width="124.51127819548871" height="48.72727272727272" as="geometry" />
        </mxCell>
        <mxCell id="-DS7HXD9sX-EJSOfmCuz-260" value="" style="endArrow=classic;startArrow=classic;html=1;entryX=0;entryY=0.5;entryDx=0;entryDy=0;exitX=1;exitY=0.5;exitDx=0;exitDy=0;" edge="1" parent="-DS7HXD9sX-EJSOfmCuz-111" source="-DS7HXD9sX-EJSOfmCuz-248" target="-DS7HXD9sX-EJSOfmCuz-250">
          <mxGeometry width="50" height="50" relative="1" as="geometry">
            <mxPoint x="-41.503759398496236" y="207.0909090909091" as="sourcePoint" />
            <mxPoint x="10.375939849624059" y="146.18181818181816" as="targetPoint" />
          </mxGeometry>
        </mxCell>
        <mxCell id="-DS7HXD9sX-EJSOfmCuz-261" style="edgeStyle=orthogonalEdgeStyle;rounded=0;orthogonalLoop=1;jettySize=auto;html=1;exitX=0.5;exitY=1;exitDx=0;exitDy=0;entryX=0.75;entryY=0;entryDx=0;entryDy=0;" edge="1" parent="-DS7HXD9sX-EJSOfmCuz-111" source="-DS7HXD9sX-EJSOfmCuz-250" target="-DS7HXD9sX-EJSOfmCuz-249">
          <mxGeometry relative="1" as="geometry" />
        </mxCell>
        <mxCell id="-DS7HXD9sX-EJSOfmCuz-250" value="&lt;span&gt;Orquestração de Jobs&lt;/span&gt;" style="shape=ext;double=1;rounded=1;whiteSpace=wrap;html=1;fillColor=#dae8fc;strokeColor=#6c8ebf;" vertex="1" parent="-DS7HXD9sX-EJSOfmCuz-111">
          <mxGeometry x="186.7669172932331" y="182.72727272727272" width="124.51127819548871" height="48.72727272727272" as="geometry" />
        </mxCell>
        <mxCell id="-DS7HXD9sX-EJSOfmCuz-263" value="" style="endArrow=classic;startArrow=classic;html=1;exitX=0.408;exitY=0.025;exitDx=0;exitDy=0;exitPerimeter=0;" edge="1" parent="-DS7HXD9sX-EJSOfmCuz-111" source="-DS7HXD9sX-EJSOfmCuz-246">
          <mxGeometry width="50" height="50" relative="1" as="geometry">
            <mxPoint x="-41.503759398496236" y="328.9090909090909" as="sourcePoint" />
            <mxPoint x="123.4736842105263" y="231.4545454545454" as="targetPoint" />
          </mxGeometry>
        </mxCell>
        <mxCell id="-DS7HXD9sX-EJSOfmCuz-251" style="edgeStyle=orthogonalEdgeStyle;rounded=0;orthogonalLoop=1;jettySize=auto;html=1;exitX=1;exitY=0.5;exitDx=0;exitDy=0;entryX=0.5;entryY=0;entryDx=0;entryDy=0;" edge="1" parent="-DS7HXD9sX-EJSOfmCuz-34" source="-DS7HXD9sX-EJSOfmCuz-236" target="-DS7HXD9sX-EJSOfmCuz-244">
          <mxGeometry relative="1" as="geometry" />
        </mxCell>
        <mxCell id="-DS7HXD9sX-EJSOfmCuz-253" style="edgeStyle=orthogonalEdgeStyle;rounded=0;orthogonalLoop=1;jettySize=auto;html=1;exitX=1;exitY=0.5;exitDx=0;exitDy=0;" edge="1" parent="-DS7HXD9sX-EJSOfmCuz-34" source="-DS7HXD9sX-EJSOfmCuz-244" target="-DS7HXD9sX-EJSOfmCuz-246">
          <mxGeometry relative="1" as="geometry" />
        </mxCell>
        <mxCell id="-DS7HXD9sX-EJSOfmCuz-255" style="edgeStyle=orthogonalEdgeStyle;rounded=0;orthogonalLoop=1;jettySize=auto;html=1;exitX=0.75;exitY=0;exitDx=0;exitDy=0;entryX=0;entryY=0.5;entryDx=0;entryDy=0;" edge="1" parent="-DS7HXD9sX-EJSOfmCuz-34" source="-DS7HXD9sX-EJSOfmCuz-235" target="-DS7HXD9sX-EJSOfmCuz-240">
          <mxGeometry relative="1" as="geometry">
            <Array as="points">
              <mxPoint x="103.75939849624059" y="267.99999999999994" />
              <mxPoint x="228.2706766917293" y="267.99999999999994" />
              <mxPoint x="228.2706766917293" y="85.27272727272727" />
            </Array>
          </mxGeometry>
        </mxCell>
        <mxCell id="-DS7HXD9sX-EJSOfmCuz-258" value="" style="endArrow=classic;startArrow=classic;html=1;entryX=0;entryY=0.5;entryDx=0;entryDy=0;exitX=1;exitY=0.75;exitDx=0;exitDy=0;" edge="1" parent="-DS7HXD9sX-EJSOfmCuz-34" source="-DS7HXD9sX-EJSOfmCuz-242" target="-DS7HXD9sX-EJSOfmCuz-248">
          <mxGeometry width="50" height="50" relative="1" as="geometry">
            <mxPoint x="601.8045112781955" y="219.27272727272728" as="sourcePoint" />
            <mxPoint x="653.6842105263157" y="158.36363636363637" as="targetPoint" />
          </mxGeometry>
        </mxCell>
        <mxCell id="-DS7HXD9sX-EJSOfmCuz-269" style="edgeStyle=orthogonalEdgeStyle;rounded=0;jumpStyle=none;orthogonalLoop=1;jettySize=auto;html=1;exitX=1;exitY=0;exitDx=0;exitDy=0;entryX=0;entryY=0.5;entryDx=0;entryDy=0;" edge="1" parent="-DS7HXD9sX-EJSOfmCuz-34" source="-DS7HXD9sX-EJSOfmCuz-250" target="-DS7HXD9sX-EJSOfmCuz-268">
          <mxGeometry relative="1" as="geometry" />
        </mxCell>
        <mxCell id="-DS7HXD9sX-EJSOfmCuz-149" value="Deployment &amp;amp; Acceptance" style="swimlane;html=1;startSize=20;fillColor=#f5f5f5;strokeColor=#666666;fontColor=#333333;" vertex="1" parent="-DS7HXD9sX-EJSOfmCuz-34">
          <mxGeometry x="985.7142857142857" y="20" width="352.7819548872181" height="650" as="geometry" />
        </mxCell>
        <mxCell id="-DS7HXD9sX-EJSOfmCuz-278" style="edgeStyle=orthogonalEdgeStyle;rounded=0;jumpStyle=none;orthogonalLoop=1;jettySize=auto;html=1;exitX=0.5;exitY=1;exitDx=0;exitDy=0;" edge="1" parent="-DS7HXD9sX-EJSOfmCuz-149" source="-DS7HXD9sX-EJSOfmCuz-247" target="-DS7HXD9sX-EJSOfmCuz-271">
          <mxGeometry relative="1" as="geometry" />
        </mxCell>
        <mxCell id="-DS7HXD9sX-EJSOfmCuz-247" value="&lt;span&gt;Execução de processo de deploy&lt;/span&gt;" style="shape=ext;double=1;rounded=1;whiteSpace=wrap;html=1;fillColor=#dae8fc;strokeColor=#6c8ebf;" vertex="1" parent="-DS7HXD9sX-EJSOfmCuz-149">
          <mxGeometry x="22.777218045112775" y="220.00090909090906" width="124.51127819548871" height="48.72727272727272" as="geometry" />
        </mxCell>
        <mxCell id="-DS7HXD9sX-EJSOfmCuz-273" style="edgeStyle=orthogonalEdgeStyle;rounded=0;jumpStyle=none;orthogonalLoop=1;jettySize=auto;html=1;exitX=0.5;exitY=1;exitDx=0;exitDy=0;entryX=0.45;entryY=0.021;entryDx=0;entryDy=0;entryPerimeter=0;" edge="1" parent="-DS7HXD9sX-EJSOfmCuz-149" source="-DS7HXD9sX-EJSOfmCuz-271" target="-DS7HXD9sX-EJSOfmCuz-272">
          <mxGeometry relative="1" as="geometry" />
        </mxCell>
        <mxCell id="-DS7HXD9sX-EJSOfmCuz-271" value="Finalizar documentação" style="shape=ext;double=1;rounded=1;whiteSpace=wrap;html=1;fillColor=#dae8fc;strokeColor=#6c8ebf;" vertex="1" parent="-DS7HXD9sX-EJSOfmCuz-149">
          <mxGeometry x="22.78" y="330" width="124.51" height="40" as="geometry" />
        </mxCell>
        <mxCell id="-DS7HXD9sX-EJSOfmCuz-268" value="Check point do projeto" style="shape=ext;double=1;rounded=1;whiteSpace=wrap;html=1;fillColor=#dae8fc;strokeColor=#6c8ebf;" vertex="1" parent="-DS7HXD9sX-EJSOfmCuz-149">
          <mxGeometry x="22.777218045112818" y="70.00090909090906" width="124.51127819548871" height="48.72727272727272" as="geometry" />
        </mxCell>
        <mxCell id="-DS7HXD9sX-EJSOfmCuz-272" value="Catalogo de dados" style="shape=document;whiteSpace=wrap;html=1;boundedLbl=1;fillColor=#d5e8d4;strokeColor=#82b366;" vertex="1" parent="-DS7HXD9sX-EJSOfmCuz-149">
          <mxGeometry x="182.7789473684211" y="398.72818181818184" width="124.51127819548871" height="60.90909090909091" as="geometry" />
        </mxCell>
        <mxCell id="-DS7HXD9sX-EJSOfmCuz-267" value="&lt;span&gt;Monitorar metricas&lt;/span&gt;" style="shape=ext;double=1;rounded=1;whiteSpace=wrap;html=1;fillColor=#dae8fc;strokeColor=#6c8ebf;" vertex="1" parent="-DS7HXD9sX-EJSOfmCuz-149">
          <mxGeometry x="202.77721804511282" y="230.00090909090906" width="124.51127819548871" height="48.72727272727272" as="geometry" />
        </mxCell>
        <mxCell id="-DS7HXD9sX-EJSOfmCuz-270" value="Suporte" style="shape=ext;double=1;rounded=1;whiteSpace=wrap;html=1;fillColor=#dae8fc;strokeColor=#6c8ebf;" vertex="1" parent="-DS7HXD9sX-EJSOfmCuz-149">
          <mxGeometry x="222.77721804511282" y="70.00090909090906" width="124.51127819548871" height="48.72727272727272" as="geometry" />
        </mxCell>
        <mxCell id="-DS7HXD9sX-EJSOfmCuz-274" value="" style="endArrow=classic;startArrow=classic;html=1;exitX=0.5;exitY=1;exitDx=0;exitDy=0;" edge="1" parent="-DS7HXD9sX-EJSOfmCuz-149" source="-DS7HXD9sX-EJSOfmCuz-268" target="-DS7HXD9sX-EJSOfmCuz-247">
          <mxGeometry width="50" height="50" relative="1" as="geometry">
            <mxPoint x="-377.21804511278197" y="340" as="sourcePoint" />
            <mxPoint x="-327.21804511278197" y="290" as="targetPoint" />
          </mxGeometry>
        </mxCell>
        <mxCell id="-DS7HXD9sX-EJSOfmCuz-275" value="" style="endArrow=classic;startArrow=classic;html=1;" edge="1" parent="-DS7HXD9sX-EJSOfmCuz-149" source="-DS7HXD9sX-EJSOfmCuz-267">
          <mxGeometry width="50" height="50" relative="1" as="geometry">
            <mxPoint x="-377.21804511278197" y="340" as="sourcePoint" />
            <mxPoint x="259.78195488721803" y="109" as="targetPoint" />
            <Array as="points" />
          </mxGeometry>
        </mxCell>
        <mxCell id="-DS7HXD9sX-EJSOfmCuz-280" value="" style="endArrow=classic;startArrow=classic;html=1;entryX=0;entryY=0.5;entryDx=0;entryDy=0;" edge="1" parent="-DS7HXD9sX-EJSOfmCuz-149" target="-DS7HXD9sX-EJSOfmCuz-267">
          <mxGeometry width="50" height="50" relative="1" as="geometry">
            <mxPoint x="147.78195488721803" y="254" as="sourcePoint" />
            <mxPoint x="-327.21804511278197" y="290" as="targetPoint" />
          </mxGeometry>
        </mxCell>
        <mxCell id="-DS7HXD9sX-EJSOfmCuz-206" value="Pool" style="swimlane;html=1;childLayout=stackLayout;resizeParent=1;resizeParentMax=0;horizontal=0;startSize=20;horizontalStack=0;" vertex="1" parent="-DS7HXD9sX-EJSOfmCuz-264">
          <mxGeometry y="48.72727272727272" width="1380" height="621.2727272727273" as="geometry" />
        </mxCell>
        <mxCell id="-DS7HXD9sX-EJSOfmCuz-207" value="&lt;font style=&quot;font-size: 10px&quot;&gt;Designer projeto&lt;/font&gt;" style="swimlane;html=1;startSize=20;horizontal=0;" vertex="1" parent="-DS7HXD9sX-EJSOfmCuz-206">
          <mxGeometry x="20" width="1360" height="146.18181818181816" as="geometry">
            <mxRectangle x="20" width="1310" height="20" as="alternateBounds" />
          </mxGeometry>
        </mxCell>
        <mxCell id="-DS7HXD9sX-EJSOfmCuz-208" value="&lt;font style=&quot;font-size: 10px&quot;&gt;Engenharia de dados&lt;/font&gt;" style="swimlane;html=1;startSize=20;horizontal=0;fillColor=#f5f5f5;strokeColor=#666666;fontColor=#333333;" vertex="1" parent="-DS7HXD9sX-EJSOfmCuz-206">
          <mxGeometry x="20" y="146.18181818181816" width="1360" height="146.18181818181816" as="geometry" />
        </mxCell>
        <mxCell id="-DS7HXD9sX-EJSOfmCuz-222" value="&lt;font style=&quot;font-size: 10px&quot;&gt;Gerenciamento de Projeto&lt;/font&gt;" style="swimlane;html=1;startSize=20;horizontal=0;fillColor=#f5f5f5;strokeColor=#666666;fontColor=#333333;" vertex="1" parent="-DS7HXD9sX-EJSOfmCuz-206">
          <mxGeometry x="20" y="292.3636363636363" width="1360" height="146.18181818181816" as="geometry" />
        </mxCell>
        <mxCell id="-DS7HXD9sX-EJSOfmCuz-209" value="&lt;font style=&quot;font-size: 10px&quot;&gt;Arquitetura da soluçao&lt;/font&gt;" style="swimlane;html=1;startSize=20;horizontal=0;fillColor=#f5f5f5;strokeColor=#666666;fontColor=#333333;" vertex="1" parent="-DS7HXD9sX-EJSOfmCuz-206">
          <mxGeometry x="20" y="438.5454545454545" width="1360" height="182.72727272727272" as="geometry" />
        </mxCell>
        <mxCell id="-DS7HXD9sX-EJSOfmCuz-276" style="edgeStyle=orthogonalEdgeStyle;rounded=0;jumpStyle=none;orthogonalLoop=1;jettySize=auto;html=1;exitX=1;exitY=0.5;exitDx=0;exitDy=0;" edge="1" parent="1" source="-DS7HXD9sX-EJSOfmCuz-268">
          <mxGeometry relative="1" as="geometry">
            <mxPoint x="870" y="130" as="targetPoint" />
          </mxGeometry>
        </mxCell>
      </root>
    </mxGraphModel>
  </diagram>
</mxfile>
